<svg height="512pt" viewBox="0 -114 512 512" width="512pt" xmlns="http://www.w3.org/2000/svg"><path d="m244.347656 210.738281c-4.058594 0-7.347656 3.289063-7.347656 7.347657 0 4.058593 3.289062 7.347656 7.347656 7.347656s7.347656-3.289063 7.347656-7.347656c0-4.058594-3.289062-7.347657-7.347656-7.347657zm175.71875-103.632812c-1.921875 2.207031-4.699218 3.472656-7.613281 3.472656s-5.6875-1.265625-7.609375-3.472656c-2.722656-3.121094-7.460938-3.445313-10.582031-.726563-3.121094 2.722656-3.449219 7.460938-.726563 10.582032 4.769532 5.476562 11.664063 8.613281 18.917969 8.613281 7.25 0 14.148437-3.136719 18.917969-8.613281 2.722656-3.125 2.398437-7.859376-.726563-10.582032-3.121093-2.722656-7.859375-2.394531-10.578125.726563zm35.203125-3.792969v8.351562c0 4.140626 3.359375 7.5 7.5 7.5s7.5-3.359374 7.5-7.5v-8.351562c0-4.144531-3.359375-7.5-7.5-7.5s-7.5 3.355469-7.5 7.5zm-100.628906 0v8.351562c0 4.140626 3.355469 7.5 7.5 7.5 4.140625 0 7.5-3.359374 7.5-7.5v-8.351562c0-4.144531-3.359375-7.5-7.5-7.5-4.144531 0-7.5 3.355469-7.5 7.5zm-131.273437 132.832031c-4.058594 0-7.347657 3.289063-7.347657 7.347657 0 4.058593 3.289063 7.347656 7.347657 7.347656 4.058593 0 7.347656-3.289063 7.347656-7.347656 0-4.058594-3.289063-7.347657-7.347656-7.347657zm-154.765626-16.761719c4.054688 0 7.347657-3.292968 7.347657-7.351562 0-4.054688-3.292969-7.347656-7.347657-7.347656-4.058593 0-7.347656 3.292968-7.347656 7.347656 0 4.058594 3.289063 7.351562 7.347656 7.351562zm424.140626-155.863281c-2.582032-3.242187-7.300782-3.773437-10.539063-1.195312-3.238281 2.582031-3.773437 7.300781-1.191406 10.542969 10.460937 13.125 15.988281 28.957031 15.988281 45.78125 0 31.621093-25.722656 57.339843-57.339844 57.339843h-74.40625c-27.863281 0-50.527344-22.664062-50.527344-50.527343 0-44.300782 36.039063-80.34375 80.34375-80.34375h28.398438c11.625 0 22.742188 2.628906 33.039062 7.820312 3.699219 1.863281 8.210938.375 10.074219-3.324219s.375-8.207031-3.324219-10.070312c-12.410156-6.257813-25.800781-9.425781-39.789062-9.425781h-28.398438c-21.515624 0-41.386718 7.164062-57.359374 19.234374-36.289063-31.867187-82.558594-49.351562-131.03125-49.351562-28.480469 0-56.195313 6.128906-81.476563 17.5-.375.136719-.738281.308594-1.09375.511719-31.78125 14.527343-59.648437 37.359375-80.230469 66.78125l-10.613281 15.164062h-1.648437c-17.433594 0-31.617188 14.183594-31.617188 31.617188 0 14.824219 10.253906 27.292969 24.039062 30.695312 4.992188 9.855469 11.988282 18.492188 20.578126 25.40625-7.085938 11.128907-10.949219 24.035157-11.039063 37.539063-.027344 4.140625 3.308594 7.523437 7.449219 7.550781h.050781c4.117187 0 7.472656-3.324219 7.5-7.449219.101563-14.804687 5.917969-28.71875 16.378906-39.179687l22.941407-22.941407h39.230468c5.699219 28.003907-3.003906 57.335938-23.386718 77.71875l-24.542969 24.542969c-2.871094 2.871094-6.8125 4.101563-10.804688 3.371094-3.992187-.730469-7.242187-3.269531-8.914062-6.96875l-2.433594-5.382813c-1.703125-3.777343-6.144531-5.457031-9.921875-3.75-3.773438 1.707032-5.453125 6.148438-3.746094 9.921876l2.429688 5.382812c3.675781 8.136719 11.113281 13.949219 19.894531 15.554688 1.625.296874 3.257813.441406 4.878906.441406 7.144531 0 14.078125-2.820313 19.222657-7.964844l24.542968-24.542969c13.050782-13.046875 22.015625-29.226562 26.398438-46.570312h41.214844c-4.917969 16.167969-4.09375 33.96875 3.113281 49.929687l5.941406 13.15625c3.675781 8.132813 11.113281 13.949219 19.894531 15.550782 1.625.296874 3.257813.441406 4.878906.441406 7.144532 0 14.082032-2.816406 19.226563-7.960938l4.558594-4.558594c4.035156 6.296876 10.523437 10.714844 17.996093 12.078126 1.625.296874 3.257813.441406 4.882813.441406 7.140625 0 14.078125-2.816406 19.222656-7.960938l24.542969-24.542968c13.210938-13.210938 22.359375-29.601563 26.691406-47.664063 11.265625-1.894531 21.9375-6.253906 31.449219-12.890625.296875.003906.59375.023438.894531.023438h74.40625c39.886719 0 72.339844-32.453126 72.339844-72.339844 0-20.257813-6.660156-39.324219-19.257812-55.132813zm-204.855469-29.625c13.75 6.789063 26.6875 15.320313 38.511719 25.492188-9.300782 9.667969-16.585938 21.28125-21.175782 34.167969l-32.535156-46.859376c5.980469-3.75 11.113281-8.046874 15.199219-12.800781zm3.519531 66.0625h-77.226562v-36.632812c16.546874-.796875 32.003906-4.210938 45.054687-9.699219zm-84.726562-84.957031c23.082031 0 45.621093 4.292969 66.640624 12.476562-3.867187 3.632813-8.671874 6.898438-14.203124 9.707032-.445313.171875-.882813.390625-1.300782.65625-13.816406 6.710937-31.894531 10.667968-51.136718 10.667968-19.238282 0-37.3125-3.957031-51.128907-10.664062-.421875-.269531-.863281-.488281-1.3125-.660156-5.5-2.796875-10.285156-6.042969-14.140625-9.65625 20.957032-8.160156 43.496094-12.527344 66.582032-12.527344zm-7.5 48.324219v36.632812h-77.226563l32.171875-46.332031c13.054688 5.488281 28.507812 8.902344 45.054688 9.699219zm-143.011719 30.066406c17.976562-25.699219 41.972656-45.960937 69.347656-59.449219 4.082031 4.734375 9.199219 9.015625 15.160156 12.753906l-36.980469 53.261719h-52.125zm-1.816407 82.136719c-.132812.136718-.257812.277344-.390624.414062-4.566407-3.683594-8.566407-7.972656-11.921876-12.746094h24.648438zm-22.734374-27.332032c-9.164063 0-16.617188-7.457031-16.617188-16.621093 0-9.160157 7.453125-16.617188 16.617188-16.617188h5.539062c.003906 0 .003906.003907.007812.003907.003907 0 .007813-.003907.007813-.003907h70.433594s.003906.003907.003906.003907c.003906 0 .007813-.003907.007813-.003907h192.6875c-.378907 3.449219-.578126 6.953125-.578126 10.503907 0 7.988281 1.441407 15.648437 4.070313 22.734374zm156.875 41.753907h-45.125c.859374-8.847657.550781-17.84375-.980469-26.753907h69.511719l-12.335938 12.335938c-4.363281 4.359375-8.058594 9.222656-11.070312 14.417969zm35.917968 75.507812c-2.875 2.871094-6.808594 4.101563-10.804687 3.371094-3.996094-.730469-7.246094-3.269531-8.917969-6.96875l-5.941406-13.15625c-9.519532-21.074219-4.925782-46.21875 11.421875-62.566406l22.941406-22.941407h39.230469c5.695312 28.003907-3.003906 57.335938-23.386719 77.71875zm71.199219-24.542969-24.542969 24.542969c-2.871094 2.871094-6.808594 4.101563-10.800781 3.371094-3.996094-.730469-7.246094-3.269531-8.917969-6.96875l-.660156-1.464844 8.871094-8.875c13.050781-13.046875 22.011718-29.226562 26.394531-46.570312h31.144531c-4.054687 13.554687-11.375 25.851562-21.488281 35.964843zm30.371094-51.269531c-.089844.007813-.179688.015625-.269531.027344-1.933594.179687-3.882813.277344-5.851563.277344h-31.285156c.859375-8.847657.550781-17.84375-.980469-26.753907h24.136719c7.261719 10.273438 17.402343 18.371094 29.242187 23.113282-4.820312 1.71875-9.839844 2.839844-14.992187 3.335937zm0 0"/></svg>